<svg xmlns="http://www.w3.org/2000/svg" viewBox="0 0 64 64" role="img" aria-label="AutoTrans">
  <defs>
    <linearGradient id="body" x1="10" y1="8" x2="54" y2="58" gradientUnits="userSpaceOnUse">
      <stop offset="0" stop-color="#36b36a"/>
      <stop offset="1" stop-color="#145c43"/>
    </linearGradient>
    <linearGradient id="road" x1="14" y1="48" x2="50" y2="48" gradientUnits="userSpaceOnUse">
      <stop offset="0" stop-color="#f4c542"/>
      <stop offset="1" stop-color="#f39b2f"/>
    </linearGradient>
  </defs>
  <rect width="64" height="64" rx="16" fill="#0d3329"/>
  <path d="M18 16h28c4.4 0 8 3.6 8 8v20c0 2.2-1.8 4-4 4h-2v3.5c0 1.4-1.1 2.5-2.5 2.5S43 52.9 43 51.5V48H21v3.5c0 1.4-1.1 2.5-2.5 2.5S16 52.9 16 51.5V48h-2c-2.2 0-4-1.8-4-4V24c0-4.4 3.6-8 8-8Z" fill="url(#body)"/>
  <path d="M18 22h28c1.1 0 2 .9 2 2v10H16V24c0-1.1.9-2 2-2Z" fill="#eafff3"/>
  <path d="M20 26h10v8H20v-8Zm14 0h10v8H34v-8Z" fill="#9fe6c0"/>
  <circle cx="20" cy="42" r="4" fill="#0d3329"/>
  <circle cx="44" cy="42" r="4" fill="#0d3329"/>
  <path d="M25 45h14" stroke="url(#road)" stroke-width="4" stroke-linecap="round"/>
  <path d="M50 18l4-5" stroke="#f4c542" stroke-width="4" stroke-linecap="round"/>
</svg>
